# xmcd CD database file
#
# Track frame offsets:
#	150
#	23967
#	42523
#	67961
#	85646
#	107245
#	127584
#	149692
#	169937
#	195071
#
# Disc length: 2849 seconds
#
# Revision: 0
# Processed by: cddbd v1.5.2PL0 Copyright (c) Steve Scherf et al.
# Submitted via: CDex 1.70beta2
#
DISCID=7e0b1f0a
DTITLE=Stocker, Jay - Above It All
DYEAR=1997
DGENRE=Jazz
TTITLE0=Up Where God Lives
TTITLE1=Far Above It All
TTITLE2=Love Of My Life
TTITLE3=Capture My Heart
TTITLE4=New Every Morning
TTITLE5=Unfailing Love
TTITLE6=Jerusalem
TTITLE7=Time Well Spent
TTITLE8=Joy Forevermore
TTITLE9=My God Is Faithful
EXTD=YEAR: 1997
EXTT0=
EXTT1=
EXTT2=
EXTT3=
EXTT4=
EXTT5=
EXTT6=
EXTT7=
EXTT8=
EXTT9=
PLAYORDER=
